<svg xmlns="http://www.w3.org/2000/svg" viewBox="0 0 190.17 79.38">
  <path d="M120,179.34H108.46V199.7h-18V179.34H54.91v-9.88l38.57-48.83h15V168H120ZM90.47,168V133.45L63.18,168Z" transform="translate(-54.91 -120.31)" />
  <path d="M175,129.82a27.48,27.48,0,0,1,6,9.8A33.71,33.71,0,0,1,183,151a31.76,31.76,0,0,1-2.44,12.71,27.92,27.92,0,0,1-6.69,9.58,30.58,30.58,0,0,1-10.36,6.23A39.47,39.47,0,0,1,150,181.7a37.85,37.85,0,0,1-14.32-2.52,30.84,30.84,0,0,1-10.34-6.66,27.15,27.15,0,0,1-6.2-9.62,34.52,34.52,0,0,1-.11-23.52,28.07,28.07,0,0,1,6.21-9.72,29.52,29.52,0,0,1,10.36-6.8A38.21,38.21,0,0,1,150,120.31a38,38,0,0,1,14.72,2.63A30,30,0,0,1,175,129.82Zm-15.15,40a32.33,32.33,0,0,0,2.23-8,73,73,0,0,0,.67-10.77,77.31,77.31,0,0,0-.61-10.25,33.71,33.71,0,0,0-2.07-8.11,13.76,13.76,0,0,0-4-5.64,9.33,9.33,0,0,0-6.07-2,9.53,9.53,0,0,0-6.12,2,14,14,0,0,0-4,5.56,31.37,31.37,0,0,0-2,8,78,78,0,0,0-.64,10.44,77.19,77.19,0,0,0,.56,10.16,35.4,35.4,0,0,0,2.07,8.05,13.55,13.55,0,0,0,3.87,5.64A9.29,9.29,0,0,0,150,177a9.53,9.53,0,0,0,6-1.93A13,13,0,0,0,159.88,169.83Z" transform="translate(-54.91 -120.31)" />
  <path d="M180,168h11.55V120.63h15l38.57,48.83v9.88H209.53V199.7h-18V179.34H180Zm56.83,0-27.29-34.56V168Z" transform="translate(-54.91 -120.31)" />
</svg>
