<svg xmlns="http://www.w3.org/2000/svg" viewBox="0 0 126.51 80.4">
  <path d="M119,191a46.89,46.89,0,0,1-13-1.74,48.54,48.54,0,0,1-10.23-4.11L92,188.88H87.45l-.7-27.56h4.62a70,70,0,0,0,4,8.29,40.08,40.08,0,0,0,5.59,7.81,28.84,28.84,0,0,0,7.33,5.87,19.21,19.21,0,0,0,9.48,2.26q7.31,0,11.2-3.58a11.7,11.7,0,0,0,3.89-9,9.77,9.77,0,0,0-3.3-7.5q-3.3-3-10.23-5.25-4.51-1.46-8.3-2.7c-2.53-.82-4.9-1.67-7.12-2.53q-7.68-3.08-11.41-8.77a22.75,22.75,0,0,1-3.74-12.74,19.92,19.92,0,0,1,1.94-8.58,22.81,22.81,0,0,1,5.64-7.4,27.78,27.78,0,0,1,9.07-5,36.24,36.24,0,0,1,12-1.93,38.77,38.77,0,0,1,11.87,1.77,49.46,49.46,0,0,1,8.7,3.54l3.27-3.22h4.68l.43,26h-4.62q-1.62-4.2-3.79-8.59a37.38,37.38,0,0,0-4.59-7.3,21,21,0,0,0-6.07-5,16.8,16.8,0,0,0-8.06-1.85,13.7,13.7,0,0,0-9.48,3.28,10.46,10.46,0,0,0-3.68,8.12,9.66,9.66,0,0,0,3.2,7.48q3.19,2.91,10,5.11c2.65.9,5.35,1.79,8.11,2.69s5.21,1.76,7.36,2.58q7.78,3,11.84,8.31a22.3,22.3,0,0,1,1.75,22.72,22.28,22.28,0,0,1-6.23,7.7,31.7,31.7,0,0,1-9.94,5.21A42.68,42.68,0,0,1,119,191Z" transform="translate(-86.75 -110.57)" />
  <path d="M167.87,189.14a31.7,31.7,0,0,1-9.94-5.21,22.28,22.28,0,0,1-6.23-7.7,22.3,22.3,0,0,1,1.75-22.72q4.05-5.3,11.84-8.31,3.22-1.23,7.36-2.58c2.76-.9,5.46-1.79,8.11-2.69q6.77-2.2,10-5.11a9.66,9.66,0,0,0,3.2-7.48,10.46,10.46,0,0,0-3.68-8.12,13.69,13.69,0,0,0-9.48-3.28,16.8,16.8,0,0,0-8.06,1.85,21,21,0,0,0-6.07,5,37.38,37.38,0,0,0-4.59,7.3q-2.17,4.4-3.79,8.59h-4.62l.43-26h4.68l3.27,3.22a49.46,49.46,0,0,1,8.7-3.54,38.77,38.77,0,0,1,11.87-1.77,36.24,36.24,0,0,1,12,1.93,27.78,27.78,0,0,1,9.07,5,22.81,22.81,0,0,1,5.64,7.4,19.92,19.92,0,0,1,1.94,8.58,22.75,22.75,0,0,1-3.74,12.74q-3.74,5.7-11.41,8.77c-2.22.86-4.59,1.71-7.12,2.53l-8.29,2.7q-6.93,2.21-10.24,5.25a9.77,9.77,0,0,0-3.3,7.5,11.7,11.7,0,0,0,3.89,9q3.9,3.59,11.2,3.58a19.21,19.21,0,0,0,9.48-2.26,28.84,28.84,0,0,0,7.33-5.87,40.08,40.08,0,0,0,5.59-7.81,70,70,0,0,0,4-8.29h4.62l-.69,27.56H208l-3.71-3.76a48.54,48.54,0,0,1-10.23,4.11A46.89,46.89,0,0,1,181,191,42.68,42.68,0,0,1,167.87,189.14Z" transform="translate(-86.75 -110.57)" />
</svg>
